# xmcd
#
# Track frame offsets:
#	150
#	13283
#	27241
#	41499
#	56657
#	73240
#	89148
#	103181
#	118039
#	134172
#	149405
#	164338
#	178446
#
# Disc length: 2525 seconds
#
# Revision: 1
# Processed by: cddbd v1.5.2PL0 Copyright (c) Steve Scherf et al.
# Submitted via: audiograbber 1.83.01
#
DISCID=d209db0d
DTITLE=George Strait - Twang
DYEAR=2009
DGENRE=Country
TTITLE0=Twang
TTITLE1=Where Have I Been All My Life
TTITLE2=I Gotta Get To You
TTITLE3=Easy As You Go
TTITLE4=Living For The Night
TTITLE5=Same Kind Of Crazy
TTITLE6=Out Of Sight Out Of Mind
TTITLE7=Arkansas Dave
TTITLE8=The Breath You Take
TTITLE9=He's Got That Something Special
TTITLE10=Hot Grease and Zydeco
TTITLE11=Beautiful Day For Goodbye
TTITLE12=El Rey
EXTD=
EXTT0=
EXTT1=
EXTT2=
EXTT3=
EXTT4=
EXTT5=
EXTT6=
EXTT7=
EXTT8=
EXTT9=
EXTT10=
EXTT11=
EXTT12=
PLAYORDER=
